# xmcd CD database file
#
# Track frame offsets:
#	150
#	21938
#	40088
#	60863
#	84067
#	108124
#	138696
#	164168
#	187943
#	208672
#	233563
#	263104
#	284564
#	310861
#	328571
#
# Disc length: 4782 seconds
#
# Revision: 0
# Processed by: cddbd v1.5.2PL0 Copyright (c) Steve Scherf et al.
# Submitted via: CDex 1.51
#
DISCID=c712ac0f
DTITLE=Davis, Eddie 'Lockjaw' - Trackin' and I Only Have Eyes For You
DYEAR=1962
DGENRE=Jazz
TTITLE0=There Will Never Be Another You
TTITLE1=What's New
TTITLE2=Too Marvellous For Words
TTITLE3=A Foggy Day
TTITLE4=Beano
TTITLE5=Day By Day
TTITLE6=Robbins' Nest
TTITLE7=I Only Have Eyes For You
TTITLE8=Sweet And Lovely
TTITLE9=Street Lights
TTITLE10=The Way You Look Tonight
TTITLE11=It's A Pity To Say Goodnight
TTITLE12=Time On My Hands
TTITLE13=What's New (alternate version)(bonus)
TTITLE14=Beano (alternate version)(bonus)
EXTD=YEAR: 1962
EXTT0=
EXTT1=
EXTT2=
EXTT3=
EXTT4=
EXTT5=
EXTT6=
EXTT7=
EXTT8=
EXTT9=
EXTT10=
EXTT11=
EXTT12=
EXTT13=
EXTT14=
PLAYORDER=
